<svg height="32" width="32" version="1.1" id="_x32_" xmlns="http://www.w3.org/2000/svg" xmlns:xlink="http://www.w3.org/1999/xlink" viewBox="0 0 512 512" xml:space="preserve"><style type="text/css">.st0{fill:#cd5c5c;}</style><g stroke-opacity="1" fill-opacity="1"><path class="st0" d="M315.664 0 193.969 32.069v98.468l-86.38 20.729v98.477l-86.381 20.73v117.37L196.337 512l6.388-1.532 288.068-71.995V124.166L315.664 0zM188.487 470.942 50.17 372.883v-68.175l138.317 98.799V470.942zM201.627 386.197 66.192 289.462l58.411-14.02 135.436 96.746L201.627 386.197zM274.868 356.078l-138.317-98.799v-71.778l138.317 98.8V356.078zM288.008 266.992l-135.436-96.746 58.402-14.01 135.446 96.754L288.008 266.992zM361.248 236.881l-138.317-98.8V66.296l138.317 98.808V236.881zM374.388 147.803 238.943 51.057l70.699-19.833 136.193 96.572L374.388 147.803z" fill="black" opacity="1" fill-opacity="1"/></g></svg>